<?xml version="1.0" standalone="no"?>
<!DOCTYPE svg PUBLIC "-//W3C//DTD SVG 20010904//EN"
 "http://www.w3.org/TR/2001/REC-SVG-20010904/DTD/svg10.dtd">
<svg version="1.0" xmlns="http://www.w3.org/2000/svg"
 width="234.000000pt" height="288.000000pt" viewBox="0 0 234.000000 288.000000"
 preserveAspectRatio="xMidYMid meet">

<g transform="translate(0.000000,288.000000) scale(0.100000,-0.100000)"
fill="#000000" stroke="none">
<path d="M831 2816 c-26 -28 -19 5 -147 -746 -82 -490 -105 -630 -124 -755 -4
-33 -18 -123 -29 -200 -12 -77 -21 -184 -21 -239 l0 -99 49 -48 48 -49 78 0
c59 0 89 5 121 20 67 33 135 107 182 198 69 132 93 213 99 327 l5 100 -36 38
c-35 35 -40 37 -100 37 -34 0 -84 -7 -110 -16 -56 -19 -67 -13 -39 24 41 55
165 102 272 102 54 0 55 1 115 64 34 35 71 69 83 75 29 15 268 13 313 -2 24
-8 47 -30 76 -72 l42 -60 104 -5 c123 -7 163 -26 206 -98 l27 -47 3 -257 c2
-172 -1 -270 -8 -299 -18 -66 -71 -113 -158 -139 -84 -26 -91 -43 -39 -95 41
-41 119 -59 232 -53 99 5 174 41 212 102 35 55 56 179 48 288 -11 161 -76 628
-150 1073 -14 83 -45 276 -70 430 -47 291 -68 389 -86 412 -14 16 -59 17 -93
2 -25 -12 -125 -124 -251 -282 -83 -105 -88 -107 -275 -107 l-135 0 -33 37
c-18 21 -69 82 -113 135 -44 54 -108 127 -142 163 -54 56 -67 65 -98 65 -25 0
-42 -7 -58 -24z"/>
<path d="M1323 1381 c-58 -27 -142 -107 -164 -156 -21 -45 -26 -175 -9 -237
13 -46 90 -133 144 -160 63 -33 191 -37 249 -9 61 30 122 85 155 139 25 43 27
55 27 149 l-1 102 -44 57 c-63 81 -147 126 -244 131 -56 3 -80 0 -113 -16z
m199 -141 c61 -40 78 -69 78 -128 0 -61 -34 -128 -80 -159 -39 -27 -116 -31
-158 -9 -31 16 -74 61 -91 93 -35 68 8 175 84 213 59 29 112 26 167 -10z"/>
<path d="M296 1265 c-51 -18 -138 -79 -177 -123 -17 -19 -49 -72 -70 -116
l-39 -80 0 -146 0 -146 41 -85 c22 -46 58 -107 80 -136 90 -120 305 -229 562
-285 89 -19 133 -22 342 -23 202 0 249 3 297 18 94 29 132 102 93 177 -31 59
-55 64 -320 66 -198 0 -260 4 -355 22 -209 39 -286 72 -387 169 -85 82 -108
129 -106 220 2 92 17 124 93 209 116 129 127 170 61 235 -42 42 -56 45 -115
24z"/>
</g>
</svg>
